<svg xmlns="http://www.w3.org/2000/svg" xmlns:xlink="http://www.w3.org/1999/xlink" width="26" height="26"><defs><linearGradient id="a"><stop offset="0" stop-color="#ffd800"/><stop offset="1" stop-color="#ff6100"/></linearGradient><linearGradient id="b" x1="906.952" x2="931.379" y1="515.915" y2="546.094" gradientTransform="matrix(.833 0 0 .833 -752.223 596.81)" gradientUnits="userSpaceOnUse" xlink:href="#a"/></defs><g transform="translate(0 -1026.362)"><rect width="26" height="26" y="1026.362" fill="url(#b)" rx="5.495" ry="5.495"/><path fill="#fff" d="M13 1032.05a.34.34 0 0 0-.344.343v1.407c0 .193.151.343.344.343a.34.34 0 0 0 .344-.343v-1.407a.34.34 0 0 0-.344-.343zm-4.969 2.03a.348.348 0 0 0-.25.095c-.137.138-.105.364.032.5l.968 1a.348.348 0 0 0 .25.093c.09 0 .182-.025.25-.093a.356.356 0 0 0 0-.5l-1-1a.347.347 0 0 0-.25-.094zm9.906 0a.348.348 0 0 0-.25.095l-1 1a.356.356 0 0 0 0 .5c.069.069.16.093.25.093a.35.35 0 0 0 .25-.093l1-1a.356.356 0 0 0 0-.5.344.344 0 0 0-.25-.094zm-5.375 1.25a3.897 3.897 0 0 0-2.624 1.438c-.663.811-.95 1.828-.844 2.875.107 1.045.623 1.963 1.437 2.625.73.58 1.576.875 2.438.875 1.071 0 2.15-.444 2.906-1.281h2.938c.878-.071 1.53-.74 1.53-1.594 0-.84-.658-1.534-1.5-1.593a2.266 2.266 0 0 0-2.25-2.094c-.218 0-.424.065-.624.125a2.303 2.303 0 0 0-.5-.5 3.919 3.919 0 0 0-2.906-.875zm.063.688a3.229 3.229 0 0 1 2.406.719c.106.075.194.185.281.281a2.21 2.21 0 0 0-.906 1.532c-.892.042-1.656.787-1.656 1.656 0 .818.618 1.49 1.438 1.625.051.03.093.031.156.031h.437a3.213 3.213 0 0 1-3.812-.125 3.256 3.256 0 0 1-1.188-2.188 3.148 3.148 0 0 1 .719-2.343 3.151 3.151 0 0 1 2.125-1.188zm3.969 1.282c.868 0 1.562.649 1.562 1.5 0 .076-.021.098-.031.125a.35.35 0 0 0 .063.312c.065.092.169.156.28.156.062 0 .118-.012.25-.031.51 0 .938.413.938.906 0 .48-.401.86-.906.907h-2.844a.321.321 0 0 0-.312 0H14.5a.383.383 0 0 0-.125-.032c-.528-.044-.906-.438-.906-.937 0-.515.461-.92 1.062-.938.251.043.531-.087.531-.343v-.125c0-.836.694-1.5 1.532-1.5zM6 1039.018a.34.34 0 0 0-.344.344c0 .193.151.375.344.375h1.406c.193 0 .344-.182.344-.375a.34.34 0 0 0-.344-.344H6zm3.031 3.938a.347.347 0 0 0-.25.094l-.969 1c-.136.137-.168.363-.03.5.067.068.16.093.25.093a.348.348 0 0 0 .25-.093l1-1a.356.356 0 0 0 0-.5.352.352 0 0 0-.25-.094zm7.906 0a.343.343 0 0 0-.25.094.356.356 0 0 0 0 .5l1 1c.069.068.16.093.25.093s.181-.024.25-.093a.356.356 0 0 0 0-.5l-1-1a.346.346 0 0 0-.25-.094zM13 1044.58c-.194 0-.344.182-.344.375v1.375c0 .193.151.344.344.344a.34.34 0 0 0 .344-.344v-1.375c0-.193-.15-.375-.344-.375z"/></g></svg>