<svg width="780" height="670" viewBox="0 0 780 670" fill="none" xmlns="http://www.w3.org/2000/svg">
<g clip-path="url(#clip0_4381_73)">
<path d="M390 648.882C541.571 648.882 664.443 526.01 664.443 374.439C664.443 222.868 541.571 99.9956 390 99.9956C238.429 99.9956 115.557 222.868 115.557 374.439C115.557 526.01 238.429 648.882 390 648.882Z" fill="url(#paint0_linear_4381_73)"/>
<path d="M63.7383 80.8945C63.3687 78.6614 66.3253 74.1565 69.5503 74.2304C70.8341 74.2577 72.0868 74.5922 73.3667 74.53C76.7785 74.3627 78.5485 71.7056 79.8634 69.5076C81.1784 67.3096 83.7965 64.8004 87.1227 65.3567C91.9116 66.162 94.3236 72.4798 99.7661 67.7337C103.33 64.6292 103.598 60.2877 107.632 57.2766C110.402 55.2109 114.903 53.9854 118.618 55.1292C123.462 56.6191 125.267 61.4236 130.425 62.2601C136.14 63.1859 140.248 58.8366 142.073 55.7049C144.286 51.9002 145.107 47.7882 147.006 43.9174C148.76 40.3345 152.289 35.5339 158.614 35.6389C163.959 35.7284 166.317 39.1129 168.943 41.7972C172.355 45.2907 179.451 57.8407 187.406 56.3274C190.507 55.7361 192.059 53.2735 194.856 52.1687C199.357 50.3947 205.091 52.8339 207.803 55.8995C210.514 58.965 211.588 62.6685 214.654 65.5668C215.447 66.3176 216.408 67.0256 217.653 67.368C221.932 68.539 225.916 64.9366 230.499 64.6681C233.662 64.4814 236.595 65.9675 238.412 67.7804C240.228 69.5932 241.22 71.7329 242.609 73.7208C242.998 74.2732 243.438 74.8334 244.134 75.2108C246.145 76.2884 248.97 75.3781 251.432 74.9579C257.517 73.9114 264.426 76.7046 266.141 80.9022H63.7383V80.8945Z" fill="url(#paint1_linear_4381_73)"/>
<path d="M705.338 59.2957C705.665 57.3272 703.058 53.3591 700.214 53.4214C699.082 53.4447 697.978 53.7404 696.849 53.6859C693.842 53.5381 692.282 51.1961 691.123 49.2588C689.964 47.3214 687.657 45.1079 684.723 45.6019C680.502 46.31 678.374 51.8808 673.578 47.6988C670.438 44.96 670.201 41.1359 666.645 38.4788C664.206 36.6582 660.234 35.5767 656.962 36.5843C652.691 37.8992 651.104 42.1318 646.556 42.871C641.518 43.6879 637.896 39.856 636.289 37.09C634.337 33.7366 633.613 30.1109 631.944 26.6991C630.396 23.5402 627.287 19.3076 621.713 19.4009C616.998 19.4787 614.924 22.4626 612.609 24.8318C609.602 27.9129 603.347 38.9729 596.336 37.6385C593.601 37.1172 592.236 34.9465 589.77 33.9739C585.801 32.41 580.748 34.5613 578.359 37.2612C575.971 39.9649 575.022 43.225 572.322 45.7848C571.621 46.4461 570.773 47.0725 569.676 47.372C565.903 48.4029 562.394 45.2285 558.356 44.9951C555.57 44.8317 552.983 46.1427 551.38 47.7377C549.778 49.3366 548.906 51.2234 547.681 52.974C547.338 53.4603 546.953 53.9544 546.335 54.285C544.565 55.2343 542.071 54.4329 539.9 54.0594C534.539 53.1374 528.447 55.596 526.934 59.2996H705.338V59.2957Z" fill="url(#paint2_linear_4381_73)"/>
<path d="M322.255 332.303C309.759 345.161 321.091 376.575 341.021 372.031C362.433 367.145 359.212 333.774 339.85 328.296C332.299 326.157 326.277 328.164 322.255 332.303Z" fill="#557AFD"/>
<path d="M421.554 373.742C416.796 378.348 411.28 381.912 404.725 383.41C392.245 386.261 380.527 380.768 370.121 374.443C358.998 367.681 347.907 360.831 337.415 353.112C329.915 347.596 322.235 341.729 317.559 333.486C312.14 323.923 311.825 312.432 312.93 301.761C313.684 294.47 310.284 287.931 308.787 280.983C305.873 267.456 308.857 251.487 321.473 243.725C327.911 239.765 334.649 240.353 341.43 243.263C346.623 245.496 351.467 248.596 356.901 250.141C368.479 253.428 381.033 248.9 392.369 246.569C400.578 244.881 409.556 243.998 417.656 246.705C426.67 249.72 430.957 256.314 435.878 263.947C440.083 270.471 446.463 275.392 451.548 281.197C458.36 288.973 460.429 298.804 458.138 308.825C454.773 323.531 446.316 336.166 438.971 349.066C434.275 357.314 428.794 366.736 421.554 373.742Z" fill="#001042"/>
<path d="M328.685 513.353C343.671 490.26 352.996 461.923 339.975 435.851C338.656 433.209 337.069 430.326 334.264 429.393C328.238 427.389 320.061 429.545 314.817 432.618C296.633 443.285 285.511 463.359 275.295 481.219C264.683 499.776 255.466 519.091 244.803 537.616C240.485 545.121 236.12 552.722 233.805 561.067C231.775 568.373 231.553 576.741 234.323 583.891C246.293 614.803 279.209 576.939 289.23 565.498C303.531 549.174 316.882 531.559 328.685 513.353Z" fill="url(#paint3_linear_4381_73)"/>
<path d="M403.363 373.357C401.76 375.069 399.889 376.512 397.773 377.563C392.311 380.27 385.767 380.138 379.944 378.348C374.116 376.559 368.887 373.244 363.908 369.728C350.444 360.216 333.793 347.631 325.779 333.007C320.839 323.994 317.174 313.354 321.901 303.515C325.962 295.062 334.213 288.818 343.655 287.931C344.425 287.857 345.242 287.826 345.943 288.16C346.736 288.538 347.246 289.32 347.701 290.066C351.105 295.657 353.824 301.749 357.987 306.849C362.515 312.397 368.117 316.544 374.221 320.251C384.091 326.242 394.929 330.658 404.211 337.52C410.914 342.476 411.093 353.63 409.459 361.367C408.522 365.791 406.436 370.074 403.363 373.357Z" fill="#061F33"/>
<path d="M478.679 483.791C483.421 466.467 485.884 448.743 475.131 436.944C470.276 431.614 461.624 427.903 454.547 425.265C440.741 420.118 426.623 413.202 411.844 410.957C396.259 408.592 378.928 407.133 363.398 410.517C353.532 412.665 344.305 416.641 335.486 420.932C323.644 426.689 315.209 430.56 311.412 442.398C307.199 455.536 304.64 469.031 303.212 482.596C299.034 522.304 304.562 562.11 304.429 601.837C304.418 605.743 304.476 609.8 306.46 613.313C310.37 620.238 320.994 620.331 328.646 620.32C353.871 620.281 379.096 620.246 404.32 620.207C414.816 620.191 422.834 621.3 432.688 623.047C440.978 624.517 448.097 620.907 452.077 614.255C455.843 607.956 456.131 600.6 456.531 593.524C458.103 565.988 462.631 538.577 470.046 511.758C472.139 504.164 475.819 494.232 478.679 483.791Z" fill="url(#paint4_linear_4381_73)"/>
<path d="M417.652 433.4C422.989 424.787 424.203 414.022 417.209 405.725C414.011 401.932 408.354 401.504 403.519 401.418C393.999 401.247 384.456 402.215 375.186 404.297C366.347 406.281 357.337 409.638 353.509 418.193C350.665 424.55 351.657 431.906 355.404 437.722C358.808 443.005 364.453 446.915 370.751 448.354C380.92 450.677 392.824 450.365 402.531 446.456C408.611 444.009 414.065 439.189 417.652 433.4Z" fill="url(#paint5_linear_4381_73)"/>
<path d="M318.582 618.88C328.736 623.666 339.831 626.081 350.903 627.933C381.885 633.119 413.462 634.196 444.841 632.699C451.548 632.38 458.823 631.711 463.771 627.171C467.451 623.79 469.19 618.818 470.424 613.975C474.625 597.476 474.567 580.234 474.481 563.211C474.415 549.929 474.345 536.644 474.279 523.363C474.255 518.737 477.259 490.591 470.066 490.91C469.291 490.945 468.58 491.346 467.945 491.797C464.366 494.357 462.526 498.644 460.853 502.713C455.609 515.473 451.209 535.897 440.293 544.829C428.833 554.212 415.629 558.581 401.737 563.078C377.648 570.878 350.778 574.267 330.378 590.33C326.981 593.006 323.741 595.971 320.594 598.939C317.761 601.612 313.875 604.378 312.179 608.116C309.545 613.936 313.688 616.574 318.582 618.88Z" fill="url(#paint6_linear_4381_73)"/>
<path d="M533.003 525.07C536.835 531.979 540.639 538.9 544.378 545.868C551.964 560.005 566.05 591.411 543.499 599.172C532.135 603.082 525.638 599.258 518.126 590.979C489.712 559.663 465.483 524.561 446.285 486.895C439.138 472.874 420.165 436.345 443.211 427.996C450.486 425.363 458.877 425.973 465.693 429.642C468.809 431.319 471.575 433.575 474.217 435.932C490.848 450.766 502.693 469.902 513.228 489.315C519.741 501.309 526.409 513.174 533.003 525.07Z" fill="url(#paint7_linear_4381_73)"/>
<path d="M418.107 575.772C420.091 575.437 422.079 575.115 424.071 574.803C433.754 573.302 443.394 571.524 452.984 569.47C471.972 565.401 491.073 561.903 510.404 560.083C512.454 559.888 514.504 559.717 516.555 559.561C525.218 558.908 534.298 558.682 542.223 562.72C550.147 566.758 556.438 576.328 554.485 585.572C553.111 592.065 548.027 596.958 542.386 599.429C536.741 601.899 530.532 602.339 524.44 602.751C504.709 604.082 484.973 605.416 465.242 606.746C455.473 607.4 445.701 608.077 435.932 608.758C426.604 609.407 417.131 610.711 407.779 610.718C403.822 610.722 399.407 610.003 396.084 607.427C391.471 603.848 388.701 596.212 388.265 590.244C388.039 587.143 388.662 583.378 391.097 581.456C392.4 580.425 394.054 580.11 395.645 579.822C403.137 578.456 410.603 577.036 418.107 575.772Z" fill="url(#paint8_linear_4381_73)"/>
<path d="M331.222 593.854H237.654V612.174H331.222V593.854Z" fill="#DBCDFE"/>
<path d="M253.709 595.632L230.095 475.411C229.472 472.236 226.687 469.945 223.45 469.945H66.4698C64.1979 469.945 62.2488 471.069 61.0273 472.738L61.0078 472.719L53.7603 481.289L60.1909 479.877L83.4392 598.242C84.0616 601.417 86.847 603.708 90.0837 603.708H247.068C251.328 603.708 254.533 599.814 253.709 595.632Z" fill="#DBCDFE"/>
<path d="M82.9062 612.174H239.89C244.154 612.174 247.356 608.279 246.535 604.097L222.921 483.876C222.299 480.702 219.513 478.41 216.276 478.41H59.2922C55.0285 478.41 51.8268 482.305 52.6476 486.487L76.2616 606.708C76.884 609.882 79.6695 612.174 82.9062 612.174Z" fill="white"/>
<path d="M132.286 542.312C133.733 550.423 141.482 556.994 149.589 556.994C157.701 556.994 163.007 550.419 161.439 542.312C159.875 534.201 152.126 527.63 144.135 527.63C136.145 527.63 130.834 534.205 132.286 542.312Z" fill="#DBCDFE"/>
<path d="M395.773 605.214C391.109 606.175 387.463 610.271 382.822 611.644C379.508 612.625 375.964 612.099 372.782 610.905C369.856 609.808 366.876 609.221 363.873 608.256C361.531 607.505 358.368 605.926 355.855 606.451C349.261 607.824 342.686 612.516 336.711 615.562C335.369 616.247 333.894 616.951 332.412 616.671C330.93 616.39 329.693 614.593 330.537 613.34C328.818 614.947 326.542 618.161 323.768 616.912C322.632 616.402 321.951 614.9 322.578 613.827C321.624 614.873 320.625 615.951 319.306 616.472C317.991 616.993 316.264 616.768 315.49 615.581C315.124 615.025 315.015 614.34 314.98 613.675C314.867 611.388 315.556 609.127 316.513 607.042C321.22 596.768 331.864 589.147 340.924 583.027C342.527 581.946 344.161 580.849 346.009 580.281C347.662 579.775 349.42 579.721 351.148 579.713C362.379 579.662 373.618 581.479 384.266 585.062C386.569 585.836 389.105 585.179 391.4 584.747C393.1 584.428 394.878 584.113 396.536 584.599C398.395 585.14 399.835 586.614 400.967 588.182C403.048 591.069 404.639 594.893 404.39 598.519C404.203 601.273 403.993 604.245 400.753 604.821C399.438 605.054 398.088 604.91 396.761 605.05C396.423 605.097 396.096 605.148 395.773 605.214Z" fill="#F8A17A"/>
<path d="M397.765 439.091C404.627 436.889 410.28 432.626 412.396 425.845C414.318 419.69 411.287 412.766 410.747 406.557C410.229 400.605 410.163 394.621 410.552 388.662C410.914 383.153 411.439 377.415 410.591 371.922C410.109 368.782 408.385 369.319 405.211 368.074C402.036 366.829 398.477 366.814 395.022 366.825C387.958 366.841 369.545 366.331 365.176 372.529C363.173 375.376 363.013 378.955 362.92 382.344C362.803 386.436 362.079 391.731 361.41 397.438C361.111 399.978 361.297 402.511 360.908 405.032C360.473 407.856 359.399 410.564 358.461 413.271C354.91 423.507 358.236 433.24 369.304 437.928C377.251 441.285 388.592 442.036 397.765 439.091Z" fill="#FFDFCD"/>
<path d="M410.56 371.918C410.078 368.778 408.354 369.315 405.18 368.07C402.005 366.825 398.446 366.81 394.991 366.822C387.926 366.837 369.514 366.327 365.145 372.525C363.141 375.372 362.982 378.951 362.889 382.34C362.772 386.432 362.048 391.727 361.379 397.434C361.08 399.974 361.266 402.507 360.877 405.028C360.547 407.179 359.842 409.261 359.115 411.33C365.962 413.874 373.696 414.439 380.838 412.68C393.707 409.513 403.452 401.503 410.404 391.089C410.439 390.28 410.463 389.471 410.517 388.662C410.883 383.149 411.408 377.411 410.56 371.918Z" fill="#F9C7BA"/>
<path d="M420.819 331.591C420.764 322.158 419.461 313.21 417.034 305.779C406.561 273.72 366.569 265.799 342.488 288.814C315.634 314.478 325.912 375.836 354.198 397.388C361.76 403.149 372.039 405.176 381.224 402.713C409.016 395.26 420.994 361.056 420.819 331.591Z" fill="#FFDFCD"/>
<path d="M417.033 305.779C406.561 273.72 366.569 265.799 342.488 288.814C339.446 291.72 336.905 295.105 334.785 298.82C336.201 300.03 337.695 301.064 339.006 301.854C349.152 307.954 360.185 312.572 371.65 315.521C376.578 316.789 381.768 317.832 385.81 320.928C388.129 322.706 389.875 325.005 391.288 327.553C392.984 330.619 394.198 334.046 395.337 337.369C397.831 344.647 398.928 352.303 399.94 359.901C400.045 360.691 400.181 361.543 400.76 362.087C401.313 362.605 402.13 362.71 402.885 362.69C407.319 362.577 409.459 358.325 412.914 356.073C414.991 354.715 417.068 353.334 419.041 351.833C420.274 345.083 420.854 338.217 420.815 331.588C420.76 322.158 419.461 313.21 417.033 305.779Z" fill="#F9C7BA"/>
<path d="M395.816 326.312C397.104 329.572 397.862 333.128 398.559 336.571C400.087 344.114 400.185 351.844 400.204 359.508C400.204 360.302 400.231 361.169 400.737 361.784C401.216 362.367 402.013 362.581 402.768 362.659C407.179 363.122 409.852 359.181 413.567 357.396C417.423 355.544 421.309 353.669 424.678 351.031C434.264 343.519 432.073 331.121 431.77 320.096C431.603 314.039 431.424 307.896 429.646 302.103C427.708 295.785 423.935 290.144 419.445 285.297C406.475 271.3 386.903 264.025 367.95 265.219C358.567 265.811 347.981 269.783 341.294 276.536C335.528 282.364 342.554 290.277 347.304 294.05C356.575 301.411 366.919 307.421 377.905 311.833C382.628 313.727 387.639 315.435 391.245 319.03C393.311 321.095 394.746 323.601 395.816 326.312Z" fill="#001042"/>
<path d="M415.563 332.381C427.868 325.655 431.653 342.69 429.537 351.167C428.661 354.669 427.28 358.084 425.106 360.963C422.18 364.842 413.808 371.28 408.984 367.036C406.794 365.11 406.569 361.838 406.502 358.924C406.324 351.109 407.222 336.944 415.563 332.381Z" fill="#F8A17A"/>
<path d="M593.36 539.554C595.091 535.979 594.78 532.217 593.691 528.809C592.641 525.323 590.769 522.32 588.743 519.04C586.696 515.804 584.603 512.275 583.323 508.027C582.024 503.732 582.397 498.916 583.588 494.843C586.167 486.533 591.446 480.414 595.088 474.151C596.912 470.98 598.402 467.763 598.993 464.199C599.655 460.671 599.429 456.913 597.694 453.369C600.697 455.998 602.156 460.258 602.351 464.386C602.537 468.556 601.487 472.785 599.888 476.504C596.729 484.047 591.999 490.175 590.155 496.796C589.108 500.075 588.851 503.25 589.595 506.428C590.213 509.688 591.917 512.975 593.45 516.543C595.076 520.025 596.632 524.051 596.978 528.19C597.332 532.271 596.399 536.881 593.36 539.554Z" fill="white"/>
<path d="M608.575 610.944H581.374C576.002 610.944 571.649 606.591 571.649 601.219V544.121H618.301V601.219C618.301 606.591 613.944 610.944 608.575 610.944Z" fill="#9B87FF"/>
<path d="M621.557 559.235C610.369 559.235 601.3 568.435 601.3 579.787C601.3 591.139 610.369 600.34 621.557 600.34C632.745 600.34 641.814 591.139 641.814 579.787C641.814 568.435 632.745 559.235 621.557 559.235ZM621.557 593.01C614.36 593.01 608.525 587.089 608.525 579.787C608.525 572.485 614.36 566.564 621.557 566.564C628.754 566.564 634.589 572.485 634.589 579.787C634.589 587.093 628.754 593.01 621.557 593.01Z" fill="#9B87FF"/>
<path opacity="0.2" d="M578.624 585.58C577.235 585.58 576.103 584.444 576.103 583.059V550.536C576.103 549.147 577.239 548.015 578.624 548.015C580.013 548.015 581.145 549.151 581.145 550.536V583.059C581.145 584.444 580.009 585.58 578.624 585.58Z" fill="white"/>
<path d="M607.525 544.121V599.13C607.525 605.654 602.234 610.944 595.71 610.944H606.482C613.006 610.944 618.297 605.654 618.297 599.13V544.121H607.525Z" fill="#8070F2"/>
<path d="M375.485 388.498C372.47 388.498 369.432 388.276 366.394 387.829L366.938 384.137C377.983 385.767 388.992 384.227 398.784 379.691C401.445 378.457 403.698 377.162 405.674 375.73C409.269 373.124 412.357 369.724 414.598 365.892L417.819 367.775C415.318 372.05 411.875 375.847 407.864 378.753C405.689 380.329 403.231 381.741 400.352 383.075C392.599 386.666 384.137 388.498 375.485 388.498Z" fill="url(#paint9_linear_4381_73)"/>
<path d="M355.606 381.196C360.103 377.337 370.109 377.668 373.408 381.675C375.851 384.647 375.108 388.416 372.416 390.93C369.23 393.902 365.293 393.727 361.321 392.832C356.349 391.708 350.183 385.849 355.606 381.196Z" fill="url(#paint10_linear_4381_73)"/>
<g style="mix-blend-mode:soft-light">
<path d="M351.708 264.546C352.793 264.581 353.871 264.667 354.952 264.636C356.034 264.655 357.112 264.605 358.189 264.558C360.344 264.422 362.492 264.2 364.628 263.893C368.907 263.305 373.155 262.489 377.473 261.917C381.78 261.321 386.184 261.049 390.564 261.341C391.661 261.407 392.758 261.524 393.851 261.687C394.945 261.851 396.034 262.057 397.111 262.333C399.267 262.87 401.375 263.671 403.332 264.784C404.305 265.356 405.234 266.005 406.098 266.737C406.95 267.476 407.743 268.285 408.463 269.16C409.167 270.047 409.794 270.997 410.323 272.004C410.844 273.016 411.249 274.089 411.525 275.202C411.813 276.311 411.91 277.47 411.879 278.614C411.863 279.769 411.63 280.886 411.389 281.955C411.144 283.025 410.875 284.06 410.716 285.083C410.545 286.106 410.525 287.126 410.626 288.153C410.836 290.211 411.579 292.214 412.49 294.14C413.4 296.073 414.497 297.933 415.512 299.866C416.508 301.804 417.391 303.83 417.901 305.966C418.15 307.032 418.306 308.125 418.298 309.222C418.282 310.316 418.107 311.405 417.753 312.432C418.317 310.327 418.107 308.118 417.504 306.075C416.897 304.021 415.929 302.092 414.847 300.236C413.766 298.38 412.591 296.544 411.579 294.595C410.568 292.654 409.728 290.553 409.424 288.297C409.276 287.176 409.268 286.013 409.428 284.893C409.58 283.776 409.844 282.706 410.062 281.66C410.28 280.613 410.471 279.59 410.463 278.579C410.471 277.563 410.369 276.544 410.097 275.556C409.829 274.572 409.475 273.607 408.992 272.697C408.506 271.79 407.934 270.927 407.288 270.121C406.627 269.328 405.896 268.588 405.11 267.912C404.316 267.242 403.46 266.659 402.566 266.134C400.76 265.095 398.788 264.329 396.746 263.807C394.703 263.274 392.595 262.983 390.467 262.808C386.203 262.446 381.916 262.675 377.629 263.123C373.346 263.586 369.055 264.243 364.725 264.651C362.562 264.846 360.383 264.955 358.213 264.974C356.03 264.978 353.855 264.827 351.708 264.546Z" fill="#73B8D4"/>
</g>
<path d="M420.729 327.538C403.363 331.992 396.648 364.709 416.026 371.221C436.847 378.22 451.497 348.067 437.835 333.295C432.505 327.53 426.32 326.102 420.729 327.538Z" fill="url(#paint11_linear_4381_73)"/>
<path d="M426.421 331.735C414.431 333.661 407.047 359.131 419.403 366.141C432.68 373.673 445.137 350.992 437.329 337.929C434.283 332.832 430.28 331.117 426.421 331.735Z" fill="url(#paint12_linear_4381_73)"/>
<path d="M428.844 329.825L424.211 329.288C427.354 302.134 426.016 267.441 401.795 256.361C390.327 251.113 379.862 247.351 361.212 251.02C358.489 250.654 356.392 249.643 356.392 249.643C373.256 241.403 391.358 246.453 403.737 252.117C430.502 264.367 432.163 301.138 428.844 329.825Z" fill="#557AFD"/>
<path fill-rule="evenodd" clip-rule="evenodd" d="M502.063 301.418H492.855C484.082 301.418 476.905 294.241 476.905 285.468V201.306C476.905 192.534 484.082 185.356 492.855 185.356H652.088C660.86 185.356 668.038 192.534 668.038 201.306V285.468C668.038 294.241 660.86 301.418 652.088 301.418L543.833 301.418L502.063 331.969V301.418Z" fill="url(#paint13_linear_4381_73)"/>
<path d="M597.134 248.616H509.517C507.591 248.616 506.016 247.04 506.016 245.114V241.991C506.016 240.065 507.591 238.489 509.517 238.489H597.134C599.059 238.489 600.635 240.065 600.635 241.991V245.114C600.635 247.04 599.059 248.616 597.134 248.616Z" fill="white" fill-opacity="0.5"/>
<path d="M635.426 248.616H611.415C609.489 248.616 607.914 247.04 607.914 245.114V241.991C607.914 240.065 609.489 238.489 611.415 238.489H635.426C637.351 238.489 638.927 240.065 638.927 241.991V245.114C638.927 247.04 637.351 248.616 635.426 248.616Z" fill="white" fill-opacity="0.5"/>
<path d="M547.809 215.494H635.426C637.351 215.494 638.927 217.069 638.927 218.995V222.119C638.927 224.045 637.351 225.62 635.426 225.62H547.809C545.883 225.62 544.308 224.045 544.308 222.119V218.995C544.308 217.069 545.883 215.494 547.809 215.494Z" fill="white" fill-opacity="0.5"/>
<path d="M509.521 215.494H533.532C535.457 215.494 537.033 217.069 537.033 218.995V222.119C537.033 224.045 535.457 225.62 533.532 225.62H509.521C507.595 225.62 506.02 224.045 506.02 222.119V218.995C506.02 217.069 507.595 215.494 509.521 215.494Z" fill="white" fill-opacity="0.5"/>
<path d="M568.972 269.635H509.521C507.595 269.635 506.02 268.059 506.02 266.134V263.01C506.02 261.084 507.595 259.509 509.521 259.509H568.972C570.898 259.509 572.473 261.084 572.473 263.01V266.134C572.473 268.059 570.898 269.635 568.972 269.635Z" fill="white" fill-opacity="0.5"/>
<path d="M660.187 346.872C655.908 346.849 651.753 346.296 648.82 342.099C643.066 333.855 634.278 326.456 624.428 334.84C618.744 339.675 623.02 349.619 618.129 354.404C613.803 358.632 608.307 357.936 606.093 364.954C602.841 375.283 613.095 384.332 616.387 393.264C619.149 400.76 612.936 403.616 610.143 409.455C607.991 413.956 609.096 418.78 611.442 423.087C615.577 430.676 624.747 436.788 622.623 446.619C620.849 454.823 619.203 462.133 626.439 468.35C631.399 472.614 640.607 476.496 639.907 484.386C639.658 487.179 637.729 489.556 637.196 492.306C636.359 496.663 639.18 500.9 642.455 503.888C649.909 510.688 656.456 517.103 662.039 525.661C664.424 529.318 673.978 537.573 670.158 542.572C677.098 533.485 684.431 524.673 690.738 515.123C695.923 507.264 703.739 495.772 698.421 486.097C696.767 483.086 693.686 480.845 692.846 477.515C691.325 471.501 697.23 465.926 699.428 460.811C702.875 452.777 700.347 443.448 694.27 437.422C691.395 434.571 688.279 431.431 687.855 427.405C687.396 423.009 690.15 418.908 691.403 414.851C692.554 411.112 693.274 407.136 693.694 403.25C693.99 400.507 694.107 397.702 693.461 395.018C692.235 389.918 687.641 387.082 684.241 383.46C676.145 374.843 680.401 364.709 676.865 354.696C673.686 345.697 666.789 346.907 660.187 346.872Z" fill="#3DC8E8"/>
<path d="M671.022 552.816C674.029 518.363 671.267 483.635 664.902 449.704C658.829 417.333 650.862 384.853 638.779 354.17C634.788 344.032 630.306 334.081 625.21 324.449" stroke="#26A8D1" stroke-width="5" stroke-miterlimit="10"/>
<path d="M598.009 370.646C614.967 376.633 631.143 384.834 645.996 394.976C649.765 397.547 651.862 398.337 655.002 401.643" stroke="#26A8D1" stroke-width="5" stroke-miterlimit="10"/>
<path d="M663.043 438.554C646.766 428.035 628.306 420.912 609.186 417.765" stroke="#26A8D1" stroke-width="5" stroke-miterlimit="10"/>
<path d="M669.481 483.001C654.333 469.875 635.869 460.604 616.29 456.302" stroke="#26A8D1" stroke-width="5" stroke-miterlimit="10"/>
<path d="M654.161 400.508C655.344 382.278 659.88 364.274 667.478 347.658" stroke="#26A8D1" stroke-width="5" stroke-miterlimit="10"/>
<path d="M662.836 437.053C670.531 420.585 681.65 405.728 695.281 393.699" stroke="#26A8D1" stroke-width="5" stroke-miterlimit="10"/>
<path d="M670.489 484.265C671.551 479.177 673.418 474.259 675.994 469.747C678.993 464.495 682.914 459.838 686.91 455.302C689.785 452.034 692.714 448.809 695.686 445.627" stroke="#26A8D1" stroke-width="5" stroke-miterlimit="10"/>
<path d="M712.757 409.669C715.865 410.245 718.954 410.42 721.665 407.779C726.979 402.597 734.379 398.446 740.366 405.888C743.82 410.183 739.343 416.804 742.229 420.951C744.781 424.62 748.866 424.872 749.5 430.272C750.43 438.216 741.739 443.359 738.113 449.385C735.071 454.438 739.183 457.372 740.401 461.993C741.338 465.557 739.868 468.903 737.573 471.7C733.523 476.632 726.026 479.795 726.205 487.222C726.357 493.419 726.54 498.947 720.428 502.456C716.238 504.86 709.022 506.405 708.442 512.225C708.236 514.283 709.31 516.278 709.31 518.348C709.314 521.624 706.684 524.308 703.891 526.023C697.542 529.925 691.905 533.672 686.668 539.106C684.431 541.429 676.359 546.097 678.437 550.248C674.659 542.697 670.559 535.29 667.31 527.486C664.638 521.067 660.557 511.653 665.754 505.37C667.373 503.417 669.913 502.215 670.987 499.916C672.924 495.765 669.411 490.902 668.524 486.887C667.135 480.585 670.263 474.166 675.503 470.634C677.981 468.961 680.681 467.117 681.545 464.254C682.486 461.126 681.055 457.772 680.708 454.656C680.389 451.785 680.421 448.801 680.65 445.927C680.814 443.896 681.121 441.846 681.957 439.986C683.552 436.454 687.279 435.034 690.247 432.879C697.312 427.747 695.628 419.807 699.58 413.034C703.128 406.95 707.964 408.782 712.757 409.669Z" fill="#26A8D1"/>
<path d="M676.394 557.554C678.981 532.147 685.793 507.338 695.106 483.604C703.992 460.966 714.266 438.508 727.279 417.92C731.578 411.12 736.207 404.522 741.233 398.24" stroke="#3DC8E8" stroke-width="5" stroke-miterlimit="10"/>
<path d="M754.569 435.52C741.44 437.516 728.571 441.223 716.394 446.526C713.305 447.872 711.675 448.152 708.936 450.116" stroke="#3DC8E8" stroke-width="5" stroke-miterlimit="10"/>
<path d="M697.997 475.777C711.259 470.4 725.637 467.786 739.942 468.152" stroke="#3DC8E8" stroke-width="5" stroke-miterlimit="10"/>
<path d="M687.174 507.128C699.981 499.702 714.655 495.535 729.454 495.123" stroke="#3DC8E8" stroke-width="5" stroke-miterlimit="10"/>
<path d="M709.707 449.408C711.372 436.022 710.574 422.332 707.365 409.229" stroke="#3DC8E8" stroke-width="5" stroke-miterlimit="10"/>
<path d="M698.355 474.718C695.052 461.709 689.041 449.393 680.821 438.78" stroke="#3DC8E8" stroke-width="5" stroke-miterlimit="10"/>
<path d="M686.268 507.903C686.202 504.067 685.529 500.239 684.284 496.609C682.836 492.384 680.635 488.467 678.367 484.619C676.733 481.849 675.056 479.107 673.34 476.387" stroke="#3DC8E8" stroke-width="5" stroke-miterlimit="10"/>
<path d="M646.171 548.754H709.691L698.549 612.325H657.316L646.171 548.754Z" fill="#EFB126"/>
<path d="M638.395 548.753H717.469V530.909H638.395V548.753Z" fill="#FFC73C"/>
<path opacity="0.1" d="M708.213 557.184H647.649L646.171 548.754H709.691L708.213 557.184Z" fill="#231F20"/>
<path d="M730.263 635.998H57.1987C50.344 635.998 44.7848 630.699 44.7848 624.163C44.7848 617.628 50.344 612.329 57.1987 612.329H730.259C737.114 612.329 742.673 617.628 742.673 624.163C742.677 630.699 737.117 635.998 730.263 635.998Z" fill="#F5F5FE"/>
<path d="M160.12 199.571H134.977C124.286 199.571 115.541 208.316 115.541 219.007C115.541 225.616 118.887 231.479 123.967 234.996V248.674L137.957 238.443H160.12C170.81 238.443 179.556 229.697 179.556 219.007C179.556 208.32 170.806 199.571 160.12 199.571Z" fill="#DBCDFE"/>
<path d="M136.324 219.685C136.697 218.099 135.714 216.512 134.129 216.139C132.543 215.766 130.956 216.749 130.583 218.334C130.21 219.919 131.193 221.507 132.778 221.88C134.363 222.253 135.951 221.27 136.324 219.685Z" fill="white"/>
<path d="M149.627 221.092C150.779 219.94 150.779 218.073 149.627 216.921C148.475 215.77 146.608 215.77 145.457 216.921C144.305 218.073 144.305 219.94 145.457 221.092C146.608 222.243 148.475 222.243 149.627 221.092Z" fill="white"/>
<path d="M163.71 221.092C164.861 219.94 164.861 218.073 163.71 216.922C162.558 215.77 160.691 215.77 159.539 216.922C158.388 218.073 158.388 219.94 159.539 221.092C160.691 222.244 162.558 222.244 163.71 221.092Z" fill="white"/>
<path d="M525.183 379.644C521.304 373.011 511.52 369.681 502.063 380.733C492.606 369.677 482.818 373.011 478.943 379.644C469.389 395.991 502.063 415.224 502.063 415.224C502.063 415.224 534.738 395.991 525.183 379.644Z" fill="#DBCDFE"/>
<path d="M364.386 204.691H315.77C313.202 204.691 311.101 202.59 311.101 200.022V170.693C311.101 168.126 313.202 166.025 315.77 166.025H364.383C366.95 166.025 369.051 168.126 369.051 170.693V200.022C369.055 202.59 366.954 204.691 364.386 204.691Z" fill="#DBCDFE"/>
<path d="M312.039 167.266L337.411 191.868C338.866 193.276 341.294 193.276 342.745 191.868L368.117 167.266" stroke="white" stroke-width="4" stroke-miterlimit="10"/>
<path d="M312.039 203.442L332.856 187.453" stroke="white" stroke-width="4" stroke-miterlimit="10"/>
<path d="M368.117 203.442L347.3 187.453" stroke="white" stroke-width="4" stroke-miterlimit="10"/>
<path d="M265.822 355.575H208.219C205.64 355.575 203.551 353.486 203.551 350.907V313.747C203.551 311.167 205.64 309.078 208.219 309.078H265.822C268.402 309.078 270.491 311.167 270.491 313.747V350.907C270.491 353.482 268.402 355.575 265.822 355.575Z" fill="#DBCDFE"/>
<path d="M237.019 370.265L248.756 354.435H225.282L237.019 370.265Z" fill="#DBCDFE"/>
<path d="M254.63 338.302H251.736V330.374L251.763 329.071L251.81 327.647C251.327 328.129 250.993 328.444 250.806 328.592L249.23 329.856L247.834 328.113L252.249 324.601H254.63V338.302Z" fill="white"/>
<path d="M233.164 324.142H223.664C219.625 324.142 216.319 327.444 216.319 331.486C216.319 333.984 217.583 336.201 219.501 337.528V342.698L224.788 338.831H233.164C237.202 338.831 240.508 335.528 240.508 331.486C240.508 327.444 237.202 324.142 233.164 324.142Z" fill="white"/>
</g>
<defs>
<linearGradient id="paint0_linear_4381_73" x1="390" y1="99.9956" x2="292.16" y2="560.394" gradientUnits="userSpaceOnUse">
<stop stop-color="#F5F5FE"/>
<stop offset="1" stop-color="#F5F5FE" stop-opacity="0"/>
</linearGradient>
<linearGradient id="paint1_linear_4381_73" x1="172.339" y1="49.7956" x2="177.202" y2="89.2819" gradientUnits="userSpaceOnUse">
<stop stop-color="#F5F5FE"/>
<stop offset="1" stop-color="#F5F5FE" stop-opacity="0"/>
</linearGradient>
<linearGradient id="paint2_linear_4381_73" x1="622.686" y1="31.8797" x2="626.972" y2="66.686" gradientUnits="userSpaceOnUse">
<stop stop-color="#F5F5FE"/>
<stop offset="1" stop-color="#F5F5FE" stop-opacity="0"/>
</linearGradient>
<linearGradient id="paint3_linear_4381_73" x1="232.262" y1="440.847" x2="353.524" y2="448.736" gradientUnits="userSpaceOnUse">
<stop stop-color="#0082F8"/>
<stop offset="1" stop-color="#1C40F2"/>
</linearGradient>
<linearGradient id="paint4_linear_4381_73" x1="326.588" y1="453.411" x2="466.055" y2="623.222" gradientUnits="userSpaceOnUse">
<stop stop-color="#1C40F2"/>
<stop offset="0.9833" stop-color="#03F8FB"/>
</linearGradient>
<linearGradient id="paint5_linear_4381_73" x1="351.514" y1="425.61" x2="421.44" y2="425.61" gradientUnits="userSpaceOnUse">
<stop stop-color="#1C40F2"/>
<stop offset="0.9833" stop-color="#03F8FB"/>
</linearGradient>
<linearGradient id="paint6_linear_4381_73" x1="310.536" y1="562.122" x2="473.439" y2="562.122" gradientUnits="userSpaceOnUse">
<stop stop-color="#1C40F2"/>
<stop offset="0.9833" stop-color="#03F8FB"/>
</linearGradient>
<linearGradient id="paint7_linear_4381_73" x1="431.522" y1="513.557" x2="554.646" y2="513.557" gradientUnits="userSpaceOnUse">
<stop stop-color="#1C40F2"/>
<stop offset="0.9833" stop-color="#03F8FB"/>
</linearGradient>
<linearGradient id="paint8_linear_4381_73" x1="387.383" y1="584.958" x2="553.374" y2="584.958" gradientUnits="userSpaceOnUse">
<stop stop-color="#1C40F2"/>
<stop offset="0.9833" stop-color="#03F8FB"/>
</linearGradient>
<linearGradient id="paint9_linear_4381_73" x1="417.819" y1="388.498" x2="371.593" y2="358.009" gradientUnits="userSpaceOnUse">
<stop stop-color="#335EF7"/>
<stop offset="1" stop-color="#5F82FF"/>
</linearGradient>
<linearGradient id="paint10_linear_4381_73" x1="374.892" y1="393.407" x2="351.356" y2="383.627" gradientUnits="userSpaceOnUse">
<stop stop-color="#335EF7"/>
<stop offset="1" stop-color="#5F82FF"/>
</linearGradient>
<linearGradient id="paint11_linear_4381_73" x1="443.145" y1="372.259" x2="395.933" y2="360.497" gradientUnits="userSpaceOnUse">
<stop stop-color="#335EF7"/>
<stop offset="1" stop-color="#5F82FF"/>
</linearGradient>
<linearGradient id="paint12_linear_4381_73" x1="413.027" y1="334.251" x2="441.452" y2="336.264" gradientUnits="userSpaceOnUse">
<stop stop-color="#0082F8"/>
<stop offset="1" stop-color="#1C40F2"/>
</linearGradient>
<linearGradient id="paint13_linear_4381_73" x1="668.038" y1="331.969" x2="452.309" y2="250.427" gradientUnits="userSpaceOnUse">
<stop stop-color="#335EF7"/>
<stop offset="1" stop-color="#5F82FF"/>
</linearGradient>
<clipPath id="clip0_4381_73">
<rect width="780" height="670" fill="white"/>
</clipPath>
</defs>
</svg>
